<svg width="72" height="96" viewBox="0 0 72 96" fill="none" xmlns="http://www.w3.org/2000/svg">
<path d="M60.7764 16.4951C62.2605 15.4044 64.2427 15.7247 65.3838 17.2139L65.6045 17.5352L66.3037 18.7041V18.7051C69.6782 24.6247 71.5 31.4694 71.5 38.5068V57.4912C71.4999 61.8701 70.7934 66.2116 69.417 70.3213L68.7803 72.0791C66.9869 76.6995 64.3621 80.8893 61.0605 84.4121C57.759 87.9352 53.8427 90.7246 49.5439 92.624C45.7873 94.284 41.7983 95.2389 37.752 95.4531L36 95.499L35.6396 95.4805C33.9101 95.2852 32.5001 93.6713 32.5 91.6367C32.5 89.461 34.1071 87.7734 36 87.7734L36.0137 87.7725L37.3965 87.7344L37.4092 87.7334C40.6862 87.5612 43.912 86.7904 46.9443 85.4502C50.4099 83.9188 53.5565 81.675 56.1973 78.8574C58.7606 76.1223 60.7988 72.894 62.2168 69.3555H62.2246L62.3486 69.0371C63.7709 65.374 64.4999 61.4491 64.5 57.4912V38.5068C64.5 32.9483 63.0594 27.5275 60.376 22.8203L60.3721 22.8135L59.8301 21.8994L59.6328 21.541C58.7789 19.7949 59.2696 17.6034 60.7764 16.4951ZM4 42.2236C5.89269 42.2236 7.49971 43.9125 7.5 46.0879V57.4951C7.49844 63.4269 9.13683 69.2378 12.2236 74.1992C15.3116 79.1633 19.7169 83.0648 24.9004 85.3936C26.6227 86.1673 27.5143 88.3124 26.8799 90.2695L26.8135 90.458C26.1116 92.3165 24.2771 93.2165 22.6182 92.6875L22.2676 92.5518L21.0605 91.9854C15.1497 89.0498 10.0869 84.4144 6.45215 78.5713C2.57259 72.3349 0.497697 65.0012 0.5 57.4912V46.0879C0.500308 43.9125 2.10731 42.2236 4 42.2236ZM36 38.0605C37.8929 38.0605 39.4998 39.7485 39.5 41.9238V53.3271C39.5 55.5029 37.893 57.1914 36 57.1914C34.1071 57.1914 32.5 55.5029 32.5 53.3271V41.9238C32.5002 39.7485 34.1072 38.0605 36 38.0605ZM26.8408 1.78613C35.0718 -0.566889 43.7965 0.333912 51.4277 4.27637L52.1621 4.66797L53.6934 5.56055L54.0156 5.78223C55.4647 6.90657 55.9501 9.09693 55.04 10.8555C54.0765 12.7166 51.9493 13.3338 50.293 12.3135C43.7354 8.2745 35.925 7.17433 28.5928 9.27051C21.2837 11.3607 15.0878 16.445 11.3262 23.3613L11.3203 23.3682L11.291 23.4219C9.74722 26.2668 8.65875 29.3614 8.07031 32.5791C7.69379 34.6374 5.92955 35.9264 4.13574 35.6387L3.96191 35.6064C2.09512 35.1991 0.82177 33.1879 1.21094 31.0547C1.91135 27.2243 3.16636 23.5356 4.92773 20.1279L5.28711 19.4502C10.0157 10.7162 17.7786 4.37707 26.8408 1.78613ZM16.5 41.168C16.4883 38.2885 17.0255 35.4385 18.0742 32.7939C18.8567 30.8227 20.915 29.9697 22.6533 30.7891V30.79C24.419 31.6234 25.2732 33.8991 24.4844 35.8896C23.8233 37.5565 23.491 39.3478 23.5 41.1484V54.8926C23.4602 57.5531 24.1822 60.1739 25.584 62.4053C26.987 64.6385 29.0102 66.3831 31.3965 67.3818C33.7835 68.3807 36.4073 68.5799 38.9082 67.9473C41.4085 67.3142 43.6493 65.8854 45.3398 63.876L45.3438 63.8721C45.3468 63.8686 45.352 63.8627 45.3594 63.8545C45.3745 63.8376 45.3981 63.8109 45.4307 63.7773C45.4961 63.71 45.5949 63.6141 45.7227 63.5068C45.9803 63.2905 46.3449 63.0377 46.7832 62.8691C47.2177 62.7021 47.7187 62.6198 48.2676 62.7324C48.8158 62.8449 49.453 63.16 50.1465 63.8535C51.509 65.2161 51.5639 66.5181 51.3164 67.4785C51.1889 67.9733 50.9767 68.3895 50.7939 68.6836C50.7031 68.8298 50.6205 68.944 50.5625 69.0195C50.5337 69.057 50.5107 69.085 50.4961 69.1025C50.489 69.1111 50.4844 69.1177 50.4814 69.1211C50.4805 69.1222 50.479 69.1225 50.4785 69.123L50.4688 69.1348C47.8044 72.301 44.3101 74.5064 40.4678 75.4785C36.6258 76.45 32.5974 76.1482 28.916 74.6074C25.6973 73.2598 22.8668 71.0177 20.7178 68.1074L19.8301 66.8086C17.7419 63.4842 16.5854 59.5829 16.502 55.5703L16.5 54.7666V41.168ZM48.5 41.1064L48.4883 40.3945V40.3828L48.4473 39.7412C48.3179 38.2478 47.9494 36.7832 47.3525 35.4102C46.5733 33.6167 45.4227 32.0198 43.9746 30.7461C42.5267 29.4725 40.8196 28.555 38.9795 28.0693C37.1386 27.5839 35.2174 27.5468 33.3604 27.958C31.5674 28.3549 29.7542 27.1476 29.2832 25.1416L29.2412 24.9453C28.8444 22.8128 30.1163 20.7908 31.9834 20.377C34.833 19.7459 37.7801 19.8062 40.6064 20.5518C43.4326 21.2975 46.0761 22.7155 48.3379 24.7051C50.5994 26.695 52.4239 29.2111 53.667 32.0713C54.9023 34.9145 55.5301 38.0215 55.5 41.165V52.1641C55.5 54.3398 53.893 56.0273 52 56.0273C50.107 56.0273 48.5 54.3398 48.5 52.1641V41.1064Z" fill="url(#paint0_linear_1_894)" stroke="white"/>
<defs>
<linearGradient id="paint0_linear_1_894" x1="0" y1="48.0938" x2="72" y2="48.0938" gradientUnits="userSpaceOnUse">
<stop stop-color="#0C3DDF"/>
<stop offset="1" stop-color="#B748BE"/>
</linearGradient>
</defs>
</svg>
