<svg width="50" height="51" viewBox="0 0 50 51" fill="none" xmlns="http://www.w3.org/2000/svg">
<path d="M25.0333 20.3666C23.7956 20.3666 22.6086 20.8583 21.7335 21.7335C20.8583 22.6086 20.3666 23.7956 20.3666 25.0333C20.3666 27.4133 20.1333 30.89 19.76 34.3666M29.7 27.6466C29.7 33.2 29.7 42.5333 27.3666 48.3666M37.3766 46.08C37.6566 44.68 38.38 40.7133 38.5433 39.0333M1.69995 25.0333C1.69995 20.136 3.24082 15.3629 6.1043 11.39C8.96778 7.41718 13.0087 4.44599 17.6546 2.89734C22.3006 1.34869 27.316 1.3011 31.9905 2.7613C36.665 4.22151 40.7616 7.11548 43.6999 11.0333M1.69995 34.3666H1.72328M47.8999 34.3666C48.3666 29.7 48.2056 21.874 47.8999 20.3666M8.69995 42.5333C9.86662 39.0333 11.0333 32.0333 11.0333 25.0333C11.0309 23.444 11.2992 21.8659 11.8266 20.3666M17.2166 48.3666C17.7066 46.8266 18.2666 45.2866 18.5466 43.7M18.0333 12.9C20.1622 11.6708 22.5773 11.0239 25.0355 11.0243C27.4938 11.0247 29.9086 11.6724 32.0372 12.9022C34.1657 14.132 35.9329 15.9006 37.161 18.0301C38.3891 20.1597 39.0349 22.575 39.0333 25.0333V29.7" stroke="url(#paint0_linear_40_21)" stroke-width="3.4" stroke-linecap="round" stroke-linejoin="round"/>
<defs>
<linearGradient id="paint0_linear_40_21" x1="1.69995" y1="25.0789" x2="48.1927" y2="25.0789" gradientUnits="userSpaceOnUse">
<stop stop-color="#0C3DDF"/>
<stop offset="1" stop-color="#B748BE"/>
</linearGradient>
</defs>
</svg>
