<svg width="56" height="56" viewBox="0 0 56 56" fill="none" xmlns="http://www.w3.org/2000/svg">
<path d="M20.9999 27.9999L25.6666 32.6666L34.9999 23.3332M46.6666 30.3332C46.6666 41.9999 38.4999 47.8332 28.7933 51.2166C28.285 51.3888 27.7328 51.3806 27.2299 51.1932C17.4999 47.8332 9.33325 41.9999 9.33325 30.3332V13.9999C9.33325 13.3811 9.57909 12.7876 10.0167 12.35C10.4543 11.9124 11.0477 11.6666 11.6666 11.6666C16.3333 11.6666 22.1666 8.86658 26.2266 5.31991C26.7209 4.89757 27.3497 4.66553 27.9999 4.66553C28.6501 4.66553 29.2789 4.89757 29.7733 5.31991C33.8566 8.88991 39.6666 11.6666 44.3333 11.6666C44.9521 11.6666 45.5456 11.9124 45.9832 12.35C46.4208 12.7876 46.6666 13.3811 46.6666 13.9999V30.3332Z" stroke="url(#paint0_linear_1_1257)" stroke-width="3.4" stroke-linecap="round" stroke-linejoin="round"/>
<defs>
<linearGradient id="paint0_linear_1_1257" x1="9.33325" y1="28.0484" x2="46.6666" y2="28.0484" gradientUnits="userSpaceOnUse">
<stop stop-color="#0C3DDF"/>
<stop offset="1" stop-color="#B748BE"/>
</linearGradient>
</defs>
</svg>
