<svg width="206" height="30" viewBox="0 0 206 30" fill="none" xmlns="http://www.w3.org/2000/svg">
<path d="M20.4444 17.9659V12.0334C20.4444 10.3232 19.9913 8.65598 19.148 7.20879L18.9745 6.92249L18.9072 6.80264C18.6011 6.19344 18.7716 5.42355 19.3201 5.02888C19.8685 4.6346 20.6003 4.75514 21.0147 5.28588L21.0933 5.39775L21.3192 5.76794C22.4111 7.64169 23 9.80736 23 12.0334V17.9659C23 19.3524 22.771 20.7272 22.325 22.0288L22.1203 22.5813C21.5401 24.0434 20.6911 25.3699 19.6221 26.4858C18.5531 27.6017 17.2844 28.4856 15.8911 29.0879C14.6722 29.6148 13.3776 29.9178 12.064 29.9854L11.5 30L11.369 29.9933C10.7248 29.9233 10.2222 29.3423 10.2222 28.6364C10.2222 27.8833 10.7943 27.2728 11.5 27.2728L11.9417 27.2608C12.9691 27.208 13.9804 26.9715 14.9315 26.5604C16.0185 26.0905 17.0059 25.4018 17.8352 24.5362C18.6644 23.6708 19.3197 22.6443 19.7668 21.5174H19.7681C20.2152 20.3909 20.4444 19.1837 20.4444 17.9659ZM6.50179e-07 17.9659V14.4023C0.000109751 13.6493 0.572149 13.0388 1.27778 13.0388C1.9834 13.0388 2.55545 13.6493 2.55556 14.4023V17.9672C2.55504 19.7923 3.07047 21.5795 4.04047 23.1047C5.01081 24.6306 6.39401 25.8285 8.01981 26.543C8.67235 26.8298 8.98353 27.6271 8.71484 28.3234C8.4628 28.9763 7.79078 29.3093 7.17003 29.1118L7.04775 29.0652L6.65966 28.8868C4.74269 27.9562 3.10221 26.4868 1.92541 24.6361C0.67 22.6619 -0.000762327 20.3413 6.50179e-07 17.9659ZM5.62521 10.1904C5.90553 9.49955 6.6573 9.18181 7.3048 9.48059C7.95237 9.77958 8.24987 10.5819 7.9699 11.273C7.76626 11.7753 7.66379 12.3156 7.66667 12.859V17.1563C7.6544 17.9582 7.87695 18.7474 8.30805 19.4187C8.73944 20.0904 9.36042 20.6136 10.0912 20.9128C10.822 21.212 11.6245 21.2713 12.3897 21.082C13.1549 20.8925 13.842 20.4646 14.3613 19.8608L15.3022 20.7837L16.2443 21.7052C15.3723 22.7189 14.2273 23.4265 12.9663 23.7386C11.7052 24.0505 10.3831 23.9535 9.17529 23.459C8.11845 23.0262 7.19073 22.3063 6.48747 21.3736L6.19922 20.9608C5.47095 19.8266 5.09021 18.4836 5.11111 17.1123V12.8656C5.1073 11.946 5.28258 11.0355 5.62521 10.1904ZM14.3613 19.8608C14.8384 19.3062 15.647 19.2691 16.1668 19.7782C16.6868 20.2875 16.7211 21.1503 16.2443 21.7052L14.3613 19.8608ZM10.2222 16.6649V13.1013C10.2222 12.3482 10.7943 11.7377 11.5 11.7377C12.2057 11.7377 12.7778 12.3482 12.7778 13.1013V16.6649C12.7778 17.418 12.2057 18.0285 11.5 18.0285C10.7943 18.0285 10.2222 17.418 10.2222 16.6649ZM15.3333 16.3013V12.8483L15.3296 12.6259C15.3082 12.1092 15.1901 11.6003 14.9802 11.1278C14.7403 10.5878 14.3864 10.108 13.942 9.72562C13.4976 9.34318 12.9743 9.06805 12.4109 8.92263C11.8475 8.77729 11.2598 8.7662 10.6914 8.88933C9.99988 9.03918 9.32453 8.56196 9.18403 7.82401C9.04363 7.08604 9.49081 6.36531 10.1823 6.21538C11.1176 6.01273 12.0849 6.03195 13.0124 6.27131C13.9398 6.51072 14.8061 6.96563 15.5467 7.60296C16.2873 8.24042 16.8838 9.04568 17.29 9.95998C17.6936 10.8688 17.8987 11.8615 17.8889 12.8656V16.3013C17.8889 17.0544 17.3168 17.6649 16.6111 17.6649C15.9054 17.6649 15.3333 17.0544 15.3333 16.3013ZM8.53016 0.408049C11.2853 -0.362469 14.2107 -0.0328893 16.7397 1.32156L17.2388 1.60653L17.3498 1.6811C17.8787 2.07999 18.0494 2.84945 17.7242 3.46419C17.3771 4.11996 16.5967 4.35117 15.9822 3.98086C13.9251 2.74136 11.4763 2.40455 9.17779 3.04738C6.87991 3.69022 4.92973 5.25713 3.74848 7.39257L3.74724 7.3939C3.26222 8.26828 2.92022 9.21955 2.73525 10.209C2.5972 10.9476 1.92367 11.427 1.23161 11.2796C0.54003 11.1321 0.0918471 10.4145 0.229601 9.67635C0.471255 8.38354 0.917292 7.14161 1.54855 6.00365C3.07846 3.23923 5.59189 1.22985 8.53016 0.408049Z" fill="url(#paint0_linear_40_24)"/>
<path d="M44.4197 5.96524V23.7968H40.0829V16.4559H33.3368V23.7968H29V5.96524H33.3368V12.9505H40.0829V5.96524H44.4197ZM60.0029 9.62299V23.7968H55.6661V21.8663C55.2265 22.4929 54.6263 23.0009 53.8654 23.3904C53.1215 23.7629 52.293 23.9492 51.38 23.9492C50.2979 23.9492 49.3427 23.7121 48.5142 23.238C47.6857 22.7469 47.0432 22.0441 46.5867 21.1297C46.1302 20.2152 45.902 19.1399 45.902 17.9037V9.62299H50.2134V17.3195C50.2134 18.2678 50.4586 19.0045 50.9489 19.5294C51.4392 20.0544 52.0986 20.3168 52.9271 20.3168C53.7724 20.3168 54.4403 20.0544 54.9306 19.5294C55.4209 19.0045 55.6661 18.2678 55.6661 17.3195V9.62299H60.0029ZM79.6536 9.47059C81.412 9.47059 82.8068 10.004 83.8382 11.0709C84.8865 12.1377 85.4106 13.6194 85.4106 15.516V23.7968H81.0992V16.1003C81.0992 15.1858 80.854 14.4831 80.3637 13.992C79.8903 13.484 79.2309 13.2299 78.3855 13.2299C77.5401 13.2299 76.8723 13.484 76.382 13.992C75.9086 14.4831 75.6719 15.1858 75.6719 16.1003V23.7968H71.3604V16.1003C71.3604 15.1858 71.1153 14.4831 70.6249 13.992C70.1515 13.484 69.4921 13.2299 68.6468 13.2299C67.8014 13.2299 67.1335 13.484 66.6432 13.992C66.1698 14.4831 65.9331 15.1858 65.9331 16.1003V23.7968H61.5963V9.62299H65.9331V11.4011C66.3727 10.8084 66.9475 10.3427 67.6577 10.004C68.3678 9.6484 69.1709 9.47059 70.067 9.47059C71.1322 9.47059 72.079 9.6992 72.9075 10.1564C73.7528 10.6136 74.4122 11.2656 74.8857 12.1123C75.376 11.3333 76.0438 10.6983 76.8892 10.2072C77.7346 9.71613 78.656 9.47059 79.6536 9.47059ZM86.0597 16.6845C86.0597 15.2282 86.3302 13.9496 86.8712 12.8489C87.4292 11.7482 88.1816 10.9015 89.1284 10.3088C90.0752 9.71613 91.1319 9.41979 92.2985 9.41979C93.2961 9.41979 94.1668 9.62299 94.9108 10.0294C95.6716 10.4358 96.2549 10.9693 96.6607 11.6297V9.62299H100.997V23.7968H96.6607V21.7901C96.238 22.4505 95.6462 22.984 94.8854 23.3904C94.1415 23.7968 93.2707 24 92.2732 24C91.1235 24 90.0752 23.7037 89.1284 23.111C88.1816 22.5013 87.4292 21.6462 86.8712 20.5455C86.3302 19.4278 86.0597 18.1408 86.0597 16.6845ZM96.6607 16.7099C96.6607 15.6261 96.3564 14.7709 95.7477 14.1444C95.1559 13.5178 94.4289 13.2045 93.5666 13.2045C92.7043 13.2045 91.9688 13.5178 91.3602 14.1444C90.7684 14.754 90.4725 15.6007 90.4725 16.6845C90.4725 17.7683 90.7684 18.6319 91.3602 19.2754C91.9688 19.902 92.7043 20.2152 93.5666 20.2152C94.4289 20.2152 95.1559 19.902 95.7477 19.2754C96.3564 18.6488 96.6607 17.7937 96.6607 16.7099ZM111.236 9.47059C112.893 9.47059 114.212 10.0125 115.193 11.0963C116.19 12.1631 116.689 13.6364 116.689 15.516V23.7968H112.378V16.1003C112.378 15.152 112.132 14.4153 111.642 13.8904C111.152 13.3654 110.492 13.1029 109.664 13.1029C108.835 13.1029 108.176 13.3654 107.686 13.8904C107.195 14.4153 106.95 15.152 106.95 16.1003V23.7968H102.613V9.62299H106.95V11.5027C107.39 10.8761 107.981 10.385 108.725 10.0294C109.469 9.65686 110.306 9.47059 111.236 9.47059ZM128.96 14.6524C129.991 14.8726 130.819 15.389 131.445 16.2019C132.071 16.9978 132.383 17.9122 132.383 18.9452C132.383 20.4354 131.859 21.6208 130.811 22.5013C129.78 23.365 128.334 23.7968 126.474 23.7968H118.181V5.96524H126.195C128.004 5.96524 129.416 6.38012 130.431 7.20989C131.462 8.03966 131.978 9.16578 131.978 10.5882C131.978 11.6381 131.699 12.5103 131.141 13.2045C130.6 13.8988 129.873 14.3815 128.96 14.6524ZM122.518 13.1791H125.358C126.068 13.1791 126.609 13.0267 126.981 12.7219C127.37 12.4002 127.565 11.9345 127.565 11.3249C127.565 10.7152 127.37 10.2496 126.981 9.92781C126.609 9.60606 126.068 9.44519 125.358 9.44519H122.518V13.1791ZM125.713 20.2914C126.44 20.2914 126.998 20.1306 127.387 19.8088C127.793 19.4701 127.996 18.9875 127.996 18.361C127.996 17.7344 127.785 17.2433 127.362 16.8877C126.956 16.5321 126.39 16.3543 125.663 16.3543H122.518V20.2914H125.713ZM132.514 16.6845C132.514 15.2282 132.785 13.9496 133.326 12.8489C133.884 11.7482 134.636 10.9015 135.583 10.3088C136.53 9.71613 137.587 9.41979 138.753 9.41979C139.751 9.41979 140.622 9.62299 141.366 10.0294C142.126 10.4358 142.71 10.9693 143.115 11.6297V9.62299H147.452V23.7968H143.115V21.7901C142.693 22.4505 142.101 22.984 141.34 23.3904C140.596 23.7968 139.726 24 138.728 24C137.578 24 136.53 23.7037 135.583 23.111C134.636 22.5013 133.884 21.6462 133.326 20.5455C132.785 19.4278 132.514 18.1408 132.514 16.6845ZM143.115 16.7099C143.115 15.6261 142.811 14.7709 142.202 14.1444C141.611 13.5178 140.884 13.2045 140.021 13.2045C139.159 13.2045 138.424 13.5178 137.815 14.1444C137.223 14.754 136.927 15.6007 136.927 16.6845C136.927 17.7683 137.223 18.6319 137.815 19.2754C138.424 19.902 139.159 20.2152 140.021 20.2152C140.884 20.2152 141.611 19.902 142.202 19.2754C142.811 18.6488 143.115 17.7937 143.115 16.7099ZM148.206 16.7099C148.206 15.2366 148.502 13.9496 149.093 12.8489C149.702 11.7482 150.539 10.9015 151.604 10.3088C152.686 9.71613 153.92 9.41979 155.307 9.41979C157.082 9.41979 158.562 9.88547 159.745 10.8168C160.946 11.7482 161.732 13.0606 162.104 14.754H157.488C157.099 13.6702 156.347 13.1283 155.231 13.1283C154.436 13.1283 153.802 13.4416 153.329 14.0682C152.855 14.6778 152.619 15.5584 152.619 16.7099C152.619 17.8614 152.855 18.7504 153.329 19.377C153.802 19.9866 154.436 20.2914 155.231 20.2914C156.347 20.2914 157.099 19.7496 157.488 18.6658H162.104C161.732 20.3253 160.946 21.6292 159.745 22.5775C158.545 23.5258 157.065 24 155.307 24C153.92 24 152.686 23.7037 151.604 23.111C150.539 22.5183 149.702 21.6716 149.093 20.5709C148.502 19.4701 148.206 18.1832 148.206 16.7099ZM171.55 23.7968L167.238 17.8529V23.7968H162.902V5H167.238V15.389L171.524 9.62299H176.876L170.992 16.7353L176.926 23.7968H171.55ZM190.398 16.4813C190.398 16.8877 190.372 17.3111 190.321 17.7513H180.507C180.574 18.6319 180.853 19.3093 181.343 19.7834C181.851 20.2406 182.468 20.4693 183.195 20.4693C184.277 20.4693 185.029 20.012 185.452 19.0976H190.068C189.831 20.029 189.4 20.8672 188.774 21.6123C188.166 22.3574 187.396 22.9416 186.466 23.365C185.537 23.7883 184.497 24 183.347 24C181.961 24 180.726 23.7037 179.644 23.111C178.562 22.5183 177.717 21.6716 177.108 20.5709C176.499 19.4701 176.195 18.1832 176.195 16.7099C176.195 15.2366 176.491 13.9496 177.083 12.8489C177.691 11.7482 178.537 10.9015 179.619 10.3088C180.701 9.71613 181.944 9.41979 183.347 9.41979C184.717 9.41979 185.934 9.70766 186.999 10.2834C188.064 10.8592 188.893 11.6805 189.484 12.7473C190.093 13.8142 190.398 15.0588 190.398 16.4813ZM185.959 15.3382C185.959 14.5931 185.706 14.0004 185.198 13.5602C184.691 13.1199 184.057 12.8997 183.296 12.8997C182.569 12.8997 181.952 13.1114 181.445 13.5348C180.955 13.9581 180.65 14.5593 180.532 15.3382H185.959ZM191.062 16.6845C191.062 15.2282 191.333 13.9496 191.874 12.8489C192.432 11.7482 193.184 10.9015 194.131 10.3088C195.078 9.71613 196.134 9.41979 197.301 9.41979C198.231 9.41979 199.076 9.61453 199.837 10.004C200.615 10.3935 201.224 10.9184 201.663 11.5789V5H206V23.7968H201.663V21.7647C201.257 22.4421 200.674 22.984 199.913 23.3904C199.169 23.7968 198.299 24 197.301 24C196.134 24 195.078 23.7037 194.131 23.111C193.184 22.5013 192.432 21.6462 191.874 20.5455C191.333 19.4278 191.062 18.1408 191.062 16.6845ZM201.663 16.7099C201.663 15.6261 201.359 14.7709 200.75 14.1444C200.158 13.5178 199.431 13.2045 198.569 13.2045C197.707 13.2045 196.971 13.5178 196.363 14.1444C195.771 14.754 195.475 15.6007 195.475 16.6845C195.475 17.7683 195.771 18.6319 196.363 19.2754C196.971 19.902 197.707 20.2152 198.569 20.2152C199.431 20.2152 200.158 19.902 200.75 19.2754C201.359 18.6488 201.663 17.7937 201.663 16.7099Z" fill="white"/>
<defs>
<linearGradient id="paint0_linear_40_24" x1="0" y1="15.0293" x2="23" y2="15.0293" gradientUnits="userSpaceOnUse">
<stop stop-color="#0C3DDF"/>
<stop offset="1" stop-color="#B748BE"/>
</linearGradient>
</defs>
</svg>
