<svg width="20" height="20" viewBox="0 0 20 20" fill="none" xmlns="http://www.w3.org/2000/svg">
<g clip-path="url(#clip0_40_39)">
<path d="M6.91956 9.64608C6.26565 9.64608 5.70315 10.2961 5.66409 11.143C5.62503 11.9898 6.19768 12.3344 6.85237 12.3344C7.50706 12.3344 7.99534 12.0265 8.0344 11.1797C8.07346 10.3328 7.57347 9.64608 6.91956 9.64608Z" fill="white"/>
<path d="M14.3461 11.143C14.3078 10.2961 13.7453 9.64608 13.0907 9.64608C12.436 9.64608 11.9367 10.3328 11.9758 11.1797C12.0149 12.0273 12.5039 12.3344 13.1578 12.3344C13.8117 12.3344 14.3852 11.9898 14.3461 11.143Z" fill="white"/>
<path d="M12.4657 13.3562C12.5133 13.2422 12.4352 13.1148 12.3125 13.1023C11.593 13.0297 10.8164 12.9898 10.0047 12.9898C9.193 12.9898 8.41565 13.0297 7.6969 13.1023C7.57425 13.1148 7.49612 13.2422 7.54378 13.3562C7.9469 14.318 8.89612 14.9937 10.0047 14.9937C11.1133 14.9937 12.0633 14.318 12.4657 13.3562Z" fill="white"/>
<path fill-rule="evenodd" clip-rule="evenodd" d="M0 10C0 4.47734 4.47734 0 10 0C15.5227 0 20 4.47734 20 10C20 15.5227 15.5227 20 10 20H1.44844C0.914063 20 0.646094 19.3539 1.02422 18.9758L2.92891 17.0711C1.11953 15.2617 0 12.7617 0 10ZM13.6563 5.99842C12.868 5.99842 12.2078 5.45077 12.0344 4.71561V4.71717C11.0782 4.85233 10.3407 5.67577 10.3407 6.66795V6.6742C11.8211 6.72967 13.1742 7.14686 14.2461 7.81014C14.6399 7.50702 15.1328 7.32655 15.668 7.32655C16.9578 7.32655 18.0032 8.37186 18.0032 9.6617C18.0032 10.5922 17.4578 11.3961 16.6696 11.7711C16.5961 14.4844 13.6383 16.6672 10.0047 16.6672C6.37112 16.6672 3.41722 14.4867 3.33987 11.7758C2.54534 11.4031 1.99534 10.5969 1.99534 9.66092C1.99534 8.37108 3.04065 7.32577 4.3305 7.32577C4.868 7.32577 5.36331 7.5078 5.75784 7.81327C6.82034 7.15467 8.15862 6.73748 9.62425 6.67577V6.66717C9.62425 5.28201 10.6766 4.13905 12.0242 3.99452C12.1805 3.23592 12.8516 2.66561 13.6563 2.66561C14.5766 2.66561 15.3227 3.4117 15.3227 4.33202C15.3227 5.25233 14.5766 5.99842 13.6563 5.99842Z" fill="white"/>
</g>
<defs>
<clipPath id="clip0_40_39">
<rect width="20" height="20" fill="white"/>
</clipPath>
</defs>
</svg>
